<!DOCTYPE svg PUBLIC "-//W3C//DTD SVG 1.1//EN" "http://www.w3.org/Graphics/SVG/1.1/DTD/svg11.dtd">
<!-- Uploaded to: SVG Repo, www.svgrepo.com, Transformed by: SVG Repo Mixer Tools -->
<svg fill="#ff8001" height="800px" width="800px" version="1.1" id="Layer_1" xmlns="http://www.w3.org/2000/svg" xmlns:xlink="http://www.w3.org/1999/xlink" viewBox="0 0 512 512" xml:space="preserve" stroke="#ff8001">
<g id="SVGRepo_bgCarrier" stroke-width="0"/>
<g id="SVGRepo_tracerCarrier" stroke-linecap="round" stroke-linejoin="round"/>
<g id="SVGRepo_iconCarrier"> <g> <g> <path d="M222.265,187.818c-2.451,0-4.848,0.431-7.112,1.242l-10.057,32.081c3.89,5.49,10.2,8.848,17.17,8.848 c11.627,0,21.086-9.459,21.086-21.085C243.35,197.277,233.892,187.818,222.265,187.818z"/> </g> </g> <g> <g> <path d="M315.41,196.59c-24.253-24.253-53.425-43.306-85.132-55.773l-4.311,13.749c28.318,1.911,50.775,25.543,50.775,54.338 c0,30.039-24.438,54.477-54.477,54.477c-10.144,0-19.749-2.754-28.003-7.687l-28.335,90.377l37.653-11.805 c-0.462-2.862-0.725-5.762-0.725-8.685c0.001-30.041,24.44-54.479,54.478-54.479c21.465,0,40.264,12.583,49.103,30.918 l64.746-20.299C358.716,250.015,339.663,220.843,315.41,196.59z"/> </g> </g> <g> <g> <path d="M154.063,174.765c-18.586,23.283-28.409,51.372-28.409,81.235c0,21.106,5.102,41.682,14.679,60.099L195.34,140.64 C179.493,149.003,165.354,160.62,154.063,174.765z"/> </g> </g> <g> <g> <path d="M351.632,160.368c-30.089-30.089-66.48-53.53-106.033-68.422l-5.305,16.922c36.816,14.119,70.676,36.06,98.727,64.111 c28.051,28.051,49.992,61.911,64.111,98.727l16.922-5.305C405.161,226.848,381.72,190.457,351.632,160.368z"/> </g> </g> <g> <g> <path d="M195.9,371.667c18.418,9.577,38.994,14.679,60.1,14.679c29.863,0,57.953-9.824,81.235-28.409 c14.143-11.291,25.76-25.43,34.124-41.277L195.9,371.667z"/> </g> </g> <g> <g> <path d="M437.02,74.98C388.667,26.628,324.381,0,256,0S123.333,26.628,74.98,74.98C26.627,123.332,0,187.619,0,256 s26.628,132.667,74.98,181.02C123.332,485.373,187.619,512,256,512s132.667-26.628,181.02-74.98S512,324.381,512,256 S485.372,123.333,437.02,74.98z M412.652,303.715c-9.591,31.425-28.725,59.676-54.585,80.318 c-28.842,23.024-65.091,35.704-102.067,35.704c-36.909,0-72.526-12.42-101.333-35.142l-39.712,12.451l12.451-39.712 C104.683,328.526,92.262,292.909,92.262,256c0-36.976,12.681-73.225,35.704-102.067c20.643-25.859,48.894-44.993,80.319-54.584 l15.576-49.682l15.922,4.978c50.769,15.87,97.611,44.265,135.46,82.113c37.849,37.848,66.244,84.69,82.113,135.46l4.977,15.922 L412.652,303.715z"/> </g> </g> <g> <g> <path d="M257.335,304.493c-11.094,0-20.193,8.617-21.006,19.507l37.336-11.705C269.782,307.536,263.888,304.493,257.335,304.493z"/> </g> </g> </g>
</svg>